<svg width="51" height="50" viewBox="0 0 51 50" fill="none" xmlns="http://www.w3.org/2000/svg">
<path d="M8.03 16.55C11.06 19 13.38 22.62 14.59 26.23C14.68 25.87 14.81 25.47 15.04 25.07C15.17 24.85 15.31 24.67 15.44 24.45C14.55 19.9 12.54 14.81 9.55 10.75C8.08 8.74 6.56001 7.31 5.09 6.42C2.86 8.88 1.39 11.78 0.630005 14.77C2.41 13.7 5.09 14.1 8.08 16.51L8.04 16.55H8.03Z" fill="white"/>
<path d="M1.55999 29.05C1.73999 25.75 4.58999 23.03 9.00999 24.23C11.33 24.85 13.25 26.51 14.41 28.51C14.41 28.73 14.41 28.91 14.5 29.09C14.5 29.09 14.46 29.05 14.46 29C13.43 27.57 11.83 26.64 9.90999 26.41C5.66999 25.92 2.94999 29.13 2.98999 32.21C3.87999 33.95 4.90999 35.56 6.06999 37.07C6.06999 36.85 6.06999 36.58 6.15999 36.36C6.64999 34.26 9.14999 31.45 12.23 30.6C13.26 30.33 14.15 30.33 14.82 30.6C15.13 30.73 15.4 31.05 15.44 31.4V31.67H15.35C14.86 31.67 14.23 31.85 13.48 32.25C10.85 33.59 8.43999 36.35 7.67999 38.09C7.54999 38.36 7.49999 38.63 7.45999 38.8C8.21999 39.65 9.06999 40.5 9.95999 41.3C10.18 41.52 10.45 41.7 10.67 41.92C10.8 41.79 11.03 41.65 11.25 41.43C12.54 40.23 14.95 37.55 16.6 35.32C16.69 35.19 17.4 34.16 17.49 34.03C17.71 34.03 17.94 34.12 18.11 34.21C18.51 34.39 18.78 34.83 18.69 35.24C18.65 35.64 18.47 36.09 18.24 36.62C17.08 39.3 14.63 42.02 13.02 42.96C12.75 43.09 12.53 43.23 12.35 43.27C13.69 44.25 15.16 45.19 16.63 45.95C16.81 45.95 16.99 45.95 17.21 45.86C19.66 45.32 22.3 42.47 22.25 38.9C22.25 37.2 21.54 35.91 20.47 35.2C20.65 35.24 20.78 35.29 20.96 35.33C22.66 36.09 23.95 37.56 24.4 39.57C24.4 39.66 24.4 39.7 24.44 39.79C25.24 43.85 22.43 46.88 19.44 47.2H19.31C21.59 48.09 24.08 48.81 26.72 49.07C29.84 48.09 31.54 44.92 29.31 40.82C27.88 38.19 25.29 36.27 22.48 35.38C22.7 35.38 22.88 35.29 23.1 35.25C25.87 35.96 29.12 37.61 31.8 40.92C34.3 44.44 33.81 47.61 31.44 49.17C34.96 48.9 38.4 47.92 41.39 46C41.21 44.17 39.87 42.07 37.33 39.98C33.76 37.12 29.03 35.3 24.75 34.67C24.39 34.85 24.04 34.98 23.63 35.07C23.94 34.94 24.3 34.76 24.66 34.53C27.92 32.34 28.5 27.48 24.93 24.36C21.41 21.24 16.68 22.4 14.89 25.83C14.71 26.19 14.58 26.54 14.49 26.9V27.03C13.24 23.86 10.97 20.87 8.06999 19.04C4.36999 16.76 1.37999 17.43 -0.0100098 19.75C-0.0100098 20.82 -0.0100098 21.94 0.16999 23.01C0.43999 25.11 0.92999 27.11 1.59999 28.94L1.55999 29.03V29.05ZM19.23 26.41C19.54 26.41 19.85 26.45 20.17 26.63L24.72 28.73L23.2 29.85L22.13 29.27L20.12 30.88L20.43 31.86L19.45 32.57L18.16 28.69C18.07 28.38 17.98 28.07 18.03 27.75C18.03 27.44 18.16 27.17 18.43 26.9C18.7 26.59 18.97 26.45 19.28 26.41H19.24H19.23Z" fill="white"/>
<path d="M11.15 8.08C13.87 12.99 15.48 18.7 16.06 23.61C16.68 22.9 17.49 22.32 18.38 21.96C18.83 16.47 18.65 9.73 17.4 3.13C17.18 2.15 16.95 1.17 16.73 0.270004C13.43 0.850004 10.53 2.05 8.16 3.75C9.19 4.91 10.17 6.34 11.15 8.08Z" fill="white"/>
<path d="M28.38 27.84C28.51 29.04 28.38 30.2 27.93 31.28C33.42 30.34 40.29 29.94 47.12 30.7C47.12 30.66 47.16 30.57 47.21 30.52C47.21 30.56 47.21 30.65 47.17 30.7C48.33 30.83 49.45 31.01 50.47 31.19C50.83 27.8 50.38 24.18 49.09 20.44C48.69 20.53 48.33 20.66 47.93 20.75C40.66 22.76 33.83 25.39 28.52 27.84H28.39H28.38Z" fill="white"/>
<path d="M21.87 1.92C21.91 9.01 21.11 15.97 19.95 21.55C21.15 21.33 22.45 21.46 23.7 21.95C26.56 16.82 29.86 10.3 32.94 3.34C32.94 3.34 33.03 3.07 33.12 2.94C29.37 1.11 25.54 0.17 21.88 0V1.92H21.87Z" fill="white"/>
<path d="M27.26 32.48C26.81 33.15 26.23 33.73 25.56 34.18C30.2 34.58 35.55 36.1 39.93 38.82C42.21 40.25 43.86 41.72 44.79 43.19C46.8 41.18 48.4 38.59 49.39 35.61C48.14 35.07 46.71 34.58 45.2 34.18C39.09 32.48 32.57 32.08 27.26 32.48Z" fill="white"/>
<path d="M38.06 6.16C33.51 12.36 29.05 18.21 25.39 22.89C25.57 23.02 25.79 23.11 25.97 23.29C26.86 24.09 27.53 25.07 27.93 26.1C32.88 22.89 39.22 19.1 46.04 15.61C46.04 15.61 46.35 15.43 46.53 15.34C44.83 12.53 42.69 9.9 40.06 7.58C39.44 7.04 38.77 6.51 38.1 6.02C38.1 6.02 38.06 6.11 38.01 6.11L38.05 6.15L38.06 6.16Z" fill="white"/>
<path d="M19.23 27.84L19.81 29.67L21.1 28.55L19.4 27.66H19.22V27.84H19.23Z" fill="white"/>
</svg>
