<svg width="32" height="32" viewBox="0 0 32 32" fill="none" xmlns="http://www.w3.org/2000/svg">
<g clip-path="url(#clip0_418_357)">
<path d="M32 0H5.99395V15.828H0V32H16.172V26.0061H32V0ZM15.1398 30.9677H1.03226V16.8602H5.99395V26.0094H15.1398V30.9677ZM15.1398 24.9738H7.02621V16.8602H15.1398V24.9738ZM30.9677 24.9738H16.172V15.828H7.02621V1.03226H30.9677V24.9738Z" fill="#002619"/>
<path d="M30.9677 1.03223V24.9738H16.172V16.3441C16.172 16.0584 15.9415 15.8279 15.6559 15.8279H7.02621V1.03223H30.9677Z" fill="#002619"/>
<path d="M21.5 12L29 4M29 4H21M29 4V11.5" stroke="#37FD76"/>
</g>
<defs>
<clipPath id="clip0_418_357">
<rect width="32" height="32" fill="white"/>
</clipPath>
</defs>
</svg>
