<svg width="37" height="20" viewBox="0 0 37 20" fill="none" xmlns="http://www.w3.org/2000/svg">
<g clip-path="url(#clip0_420_368)">
<path d="M2.08367 15.6121C2.08367 15.9705 2.11483 16.3328 2.18494 16.6713C0.942515 16.4722 -0.00390625 15.3772 -0.00390625 14.0553V9.50821C-0.00390625 8.18231 0.94641 7.09132 2.18494 6.88428C2.11483 7.23068 2.08367 7.58904 2.08367 7.94341V15.6121Z" fill="#002619"/>
<path d="M26.0207 2.52041H10.9753C11.2207 1.087 12.4437 0 13.9081 0H23.0919C24.5563 0 25.7792 1.087 26.0246 2.52041H26.0207Z" fill="#002619"/>
<path d="M33.892 7.9435V15.6122C33.892 18.0291 31.9719 20 29.6078 20H26.5465C26.344 20 24.4317 19.9642 20.5447 18.8175C20.5135 18.8095 19.6918 18.5228 18.5 18.5228C17.3082 18.5228 16.4903 18.8095 16.4864 18.8135C12.5722 19.9602 10.656 20 10.4534 20H7.39218C5.02808 20 3.10797 18.0291 3.10797 15.6162V7.9435C3.10797 5.5306 5.02808 3.56763 7.39218 3.56763H29.6117C31.9758 3.56763 33.8959 5.5306 33.8959 7.9435H33.892Z" fill="#002619"/>
<path d="M37 9.50821V14.0553C37 15.3732 36.0458 16.4722 34.8073 16.6752C34.8774 16.3408 34.9085 15.9784 34.9085 15.6161V7.94341C34.9085 7.58904 34.8774 7.23068 34.8073 6.88428C36.0458 7.09132 37 8.18231 37 9.50821Z" fill="#002619"/>
<path d="M13.7134 13.5377V14.3898H9.29675V11.3797L12.7631 10.9616V9.38882H9.35907V8.53674H12.9422L13.7095 9.32113V11.6624L10.2432 12.0804V13.5338H13.7095L13.7134 13.5377Z" fill="#37FD76"/>
<path d="M14.4885 12.8847L14.7416 8.53674H15.6647L15.4349 12.0167H17.9859V8.53674H18.9362V14.3898H17.9859V12.8847H14.4846H14.4885Z" fill="#37FD76"/>
<path d="M19.4776 14.3898L21.9391 8.53674H22.9128L20.4513 14.3898H19.4776Z" fill="#37FD76"/>
<path d="M24.0344 14.3898L26.7491 10.5276V9.3729H24.2292V10.5754H23.2983V8.53674H27.6994V10.7028L25.1639 14.3898H24.0344Z" fill="#37FD76"/>
</g>
<defs>
<clipPath id="clip0_420_368">
<rect width="37" height="20" fill="white"/>
</clipPath>
</defs>
</svg>
